0
SECTION
2
HEADER
9
$INSUNITS
70
4
9
$ACADVER
1
AC1014
9
$HANDSEED
5
FFFF
0
ENDSEC
0
SECTION
2
TABLES
0
TABLE
2
VPORT
5
8
100
AcDbSymbolTable
0
ENDTAB
0
TABLE
2
LTYPE
5
5
100
AcDbSymbolTable
0
LTYPE
5
14
100
AcDbSymbolTableRecord
100
AcDbLinetypeTableRecord
2
BYBLOCK
70
0
0
LTYPE
5
15
100
AcDbSymbolTableRecord
100
AcDbLinetypeTableRecord
2
BYLAYER
70
0
0
ENDTAB
0
TABLE
2
LAYER
5
2
100
AcDbSymbolTable
70
2
0
LAYER
5
50
100
AcDbSymbolTableRecord
100
AcDbLayerTableRecord
2
0
70
0
6
CONTINUOUS
0
ENDTAB
0
TABLE
2
STYLE
5
3
100
AcDbSymbolTable
70
1
0
STYLE
5
11
100
AcDbSymbolTableRecord
100
AcDbTextStyleTableRecord
2
STANDARD
70
0
0
ENDTAB
0
TABLE
2
VIEW
5
6
100
AcDbSymbolTable
70
0
0
ENDTAB
0
TABLE
2
UCS
5
7
100
AcDbSymbolTable
70
0
0
ENDTAB
0
TABLE
2
APPID
5
9
100
AcDbSymbolTable
70
2
0
APPID
5
12
100
AcDbSymbolTableRecord
100
AcDbRegAppTableRecord
2
ACAD
70
0
0
ENDTAB
0
TABLE
2
DIMSTYLE
5
A
100
AcDbSymbolTable
70
1
0
ENDTAB
0
TABLE
2
BLOCK_RECORD
5
1
100
AcDbSymbolTable
70
1
0
BLOCK_RECORD
5
1F
100
AcDbSymbolTableRecord
100
AcDbBlockTableRecord
2
*MODEL_SPACE
0
BLOCK_RECORD
5
1B
100
AcDbSymbolTableRecord
100
AcDbBlockTableRecord
2
*PAPER_SPACE
0
ENDTAB
0
ENDSEC
0
SECTION
2
BLOCKS
0
BLOCK
5
20
100
AcDbEntity
100
AcDbBlockBegin
2
*MODEL_SPACE
0
ENDBLK
5
21
100
AcDbEntity
100
AcDbBlockEnd
0
BLOCK
5
1C
100
AcDbEntity
100
AcDbBlockBegin
2
*PAPER_SPACE
0
ENDBLK
5
1D
100
AcDbEntity
100
AcDbBlockEnd
0
ENDSEC
0
SECTION
2
ENTITIES
0
CIRCLE
5
100
100
AcDbEntity
8
0
100
AcDbCircle
10
-182.75000000000003
20
60
30
0
40
3.0000000000000071
210
0
220
-0
230
1
0
CIRCLE
5
101
100
AcDbEntity
8
0
100
AcDbCircle
10
-34.25
20
60
30
0
40
3.0000000000000027
210
0
220
-0
230
1
0
CIRCLE
5
102
100
AcDbEntity
8
0
100
AcDbCircle
10
-114.25
20
60
30
0
40
3.0000000000000071
210
0
220
-0
230
1
0
CIRCLE
5
103
100
AcDbEntity
8
0
100
AcDbCircle
10
-262.75
20
60
30
0
40
3.0000000000000071
210
0
220
-0
230
1
0
SPLINE
5
104
100
AcDbEntity
8
0
100
AcDbSpline
70
4
71
5
72
21
73
15
74
0
42
0.000000001
43
0.0000000001
44
0.0000000001
40
0
40
0
40
0
40
0
40
0
40
0
40
0.10000000000000001
40
0.20000000000000001
40
0.30000000000000004
40
0.40000000000000002
40
0.5
40
0.59999999999999998
40
0.69999999999999996
40
0.79999999999999993
40
0.89999999999999991
40
1
40
1
40
1
40
1
40
1
40
1
41
1
41
1
41
1
41
1
41
1
41
1
41
1
41
1
41
1
41
1
41
1
41
1
41
1
41
1
41
1
10
-255.00000000000006
20
270.00000000000006
30
0
10
-258.09047329685558
20
270.00000000000006
30
0
10
-263.87050333085762
20
269.58868534974113
30
0
10
-271.33793494273442
20
267.73814141750682
30
0
10
-279.00913077399343
20
262.83029939577864
30
0
10
-285.43808765517912
20
252.89419831309093
30
0
10
-289.50280441009386
20
239.66786208387973
30
0
10
-292.0195951931492
20
224.16130837713752
30
0
10
-293.66458666736071
20
207.88396210598466
30
0
10
-294.83059748220109
20
191.58391334575765
30
0
10
-295.73854628587446
20
175.73362949556056
30
0
10
-296.32597837543699
20
163.55679048316628
30
0
10
-296.69325141746867
20
154.73069095700504
30
0
10
-296.90351222883902
20
148.98083587432905
30
0
10
-297
20
146.13949457498512
30
0
0
LINE
5
105
100
AcDbEntity
8
0
100
AcDbLine
10
-297
20
146.13949457498518
30
0
11
-297
21
28.641651917629787
31
0
0
SPLINE
5
106
100
AcDbEntity
8
0
100
AcDbSpline
70
4
71
5
72
21
73
15
74
0
42
0.000000001
43
0.0000000001
44
0.0000000001
40
0
40
0
40
0
40
0
40
0
40
0
40
0.10000000000000001
40
0.20000000000000001
40
0.30000000000000004
40
0.40000000000000002
40
0.5
40
0.59999999999999998
40
0.69999999999999996
40
0.79999999999999993
40
0.89999999999999991
40
1
40
1
40
1
40
1
40
1
40
1
41
1
41
1
41
1
41
1
41
1
41
1
41
1
41
1
41
1
41
1
41
1
41
1
41
1
41
1
41
1
10
-297
20
28.641651917629787
30
0
10
-296.75982394825741
20
26.249391692187459
30
0
10
-295.88861590603756
20
21.8100753449161
30
0
10
-293.40930715237545
20
16.186717368801389
30
0
10
-287.83769136793615
20
10.629465572791938
30
0
10
-277.50830502818013
20
6.2445384404804569
30
0
10
-264.3119812151416
20
3.635633494628105
30
0
10
-248.75601104932036
20
2.1360551489643105
30
0
10
-231.30455054540772
20
1.2896174096560598
30
0
10
-212.33990161191767
20
0.79010151735920209
30
0
10
-192.14726379841358
20
0.45761621582598722
30
0
10
-175.15945157509404
20
0.25233809294259479
30
0
10
-161.99266546269854
20
0.11849015220771199
30
0
10
-153.02859204084396
20
0.038033413393074145
30
0
10
-148.5
20
0
30
0
0
SPLINE
5
107
100
AcDbEntity
8
0
100
AcDbSpline
70
4
71
5
72
21
73
15
74
0
42
0.000000001
43
0.0000000001
44
0.0000000001
40
-1
40
-1
40
-1
40
-1
40
-1
40
-1
40
-0.89999999999999991
40
-0.79999999999999993
40
-0.69999999999999996
40
-0.59999999999999998
40
-0.5
40
-0.40000000000000002
40
-0.30000000000000004
40
-0.20000000000000001
40
-0.10000000000000001
40
0
40
0
40
0
40
0
40
0
40
0
41
1
41
1
41
1
41
1
41
1
41
1
41
1
41
1
41
1
41
1
41
1
41
1
41
1
41
1
41
1
10
-148.5
20
0
30
0
10
-143.97140795915607
20
0.038033413393074145
30
0
10
-135.00733453730149
20
0.11849015220771199
30
0
10
-121.84054842490599
20
0.25233809294259479
30
0
10
-104.85273620158644
20
0.45761621582598722
30
0
10
-84.660098388082361
20
0.79010151735920209
30
0
10
-65.695449454592307
20
1.2896174096560598
30
0
10
-48.24398895067965
20
2.1360551489643105
30
0
10
-32.688018784858421
20
3.635633494628105
30
0
10
-19.491694971819875
20
6.2445384404804569
30
0
10
-9.1623086320639047
20
10.629465572791938
30
0
10
-3.5906928476245881
20
16.186717368801389
30
0
10
-1.1113840939624708
20
21.8100753449161
30
0
10
-0.24017605174261547
20
26.249391692187459
30
0
10
0
20
28.641651917629787
30
0
0
LINE
5
108
100
AcDbEntity
8
0
100
AcDbLine
10
3.8272207648562748e-17
20
28.641651917629787
30
0
11
0
21
146.13949457498512
31
0
0
SPLINE
5
109
100
AcDbEntity
8
0
100
AcDbSpline
70
4
71
5
72
21
73
15
74
0
42
0.000000001
43
0.0000000001
44
0.0000000001
40
-1
40
-1
40
-1
40
-1
40
-1
40
-1
40
-0.89999999999999991
40
-0.79999999999999993
40
-0.69999999999999996
40
-0.59999999999999998
40
-0.5
40
-0.40000000000000002
40
-0.30000000000000004
40
-0.20000000000000001
40
-0.10000000000000001
40
0
40
0
40
0
40
0
40
0
40
0
41
1
41
1
41
1
41
1
41
1
41
1
41
1
41
1
41
1
41
1
41
1
41
1
41
1
41
1
41
1
10
0
20
146.13949457498512
30
0
10
-0.096487771161029884
20
148.98083587432905
30
0
10
-0.30674858253181347
20
154.73069095700509
30
0
10
-0.67402162456410686
20
163.55679048316662
30
0
10
-1.2614537141268209
20
175.73362949556139
30
0
10
-2.169402517799798
20
191.5839133457587
30
0
10
-3.3354133326395159
20
207.88396210598523
30
0
10
-4.9804048068510038
20
224.16130837713746
30
0
10
-7.4971955899059601
20
239.66786208387981
30
0
10
-11.561912344821435
20
252.89419831309107
30
0
10
-17.990869226007902
20
262.83029939577875
30
0
10
-25.662065057266705
20
267.73814141750688
30
0
10
-33.129496669142434
20
269.58868534974118
30
0
10
-38.909526703144458
20
270.00000000000006
30
0
10
-41.999999999999972
20
270.00000000000006
30
0
0
LINE
5
110
100
AcDbEntity
8
0
100
AcDbLine
10
-41.999999999999986
20
270.00000000000006
30
0
11
-255.00000000000006
21
270.00000000000006
31
0
0
CIRCLE
5
111
100
AcDbEntity
8
0
100
AcDbCircle
10
-262.75
20
60
30
0
40
3.0000000000000071
210
0
220
-0
230
1
0
CIRCLE
5
112
100
AcDbEntity
8
0
100
AcDbCircle
10
-114.25
20
60
30
0
40
3.0000000000000071
210
0
220
-0
230
1
0
CIRCLE
5
113
100
AcDbEntity
8
0
100
AcDbCircle
10
-34.25
20
60
30
0
40
3.0000000000000027
210
0
220
-0
230
1
0
CIRCLE
5
114
100
AcDbEntity
8
0
100
AcDbCircle
10
-182.75000000000003
20
60
30
0
40
3.0000000000000071
210
0
220
-0
230
1
0
LINE
5
115
100
AcDbEntity
8
0
100
AcDbLine
10
-255.00000000000006
20
270
30
0
11
-41.999999999999957
21
270
31
0
0
SPLINE
5
116
100
AcDbEntity
8
0
100
AcDbSpline
70
4
71
5
72
21
73
15
74
0
42
0.000000001
43
0.0000000001
44
0.0000000001
40
0
40
0
40
0
40
0
40
0
40
0
40
0.10000000000000001
40
0.20000000000000001
40
0.30000000000000004
40
0.40000000000000002
40
0.5
40
0.59999999999999998
40
0.69999999999999996
40
0.79999999999999993
40
0.89999999999999991
40
1
40
1
40
1
40
1
40
1
40
1
41
1
41
1
41
1
41
1
41
1
41
1
41
1
41
1
41
1
41
1
41
1
41
1
41
1
41
1
41
1
10
-41.999999999999972
20
270.00000000000006
30
0
10
-38.909526703144458
20
270.00000000000006
30
0
10
-33.129496669142434
20
269.58868534974118
30
0
10
-25.662065057266705
20
267.73814141750688
30
0
10
-17.990869226007902
20
262.83029939577875
30
0
10
-11.561912344821435
20
252.89419831309107
30
0
10
-7.4971955899059601
20
239.66786208387981
30
0
10
-4.9804048068510038
20
224.16130837713746
30
0
10
-3.3354133326395159
20
207.88396210598523
30
0
10
-2.169402517799798
20
191.5839133457587
30
0
10
-1.2614537141268209
20
175.73362949556139
30
0
10
-0.67402162456410686
20
163.55679048316662
30
0
10
-0.30674858253181347
20
154.73069095700509
30
0
10
-0.096487771161029884
20
148.98083587432905
30
0
10
0
20
146.13949457498512
30
0
0
LINE
5
117
100
AcDbEntity
8
0
100
AcDbLine
10
6.4878339702432875e-18
20
146.13949457498518
30
0
11
6.5376966026523699e-32
21
28.641651917629787
31
0
0
SPLINE
5
118
100
AcDbEntity
8
0
100
AcDbSpline
70
4
71
5
72
21
73
15
74
0
42
0.000000001
43
0.0000000001
44
0.0000000001
40
0
40
0
40
0
40
0
40
0
40
0
40
0.10000000000000001
40
0.20000000000000001
40
0.30000000000000004
40
0.40000000000000002
40
0.5
40
0.59999999999999998
40
0.69999999999999996
40
0.79999999999999993
40
0.89999999999999991
40
1
40
1
40
1
40
1
40
1
40
1
41
1
41
1
41
1
41
1
41
1
41
1
41
1
41
1
41
1
41
1
41
1
41
1
41
1
41
1
41
1
10
0
20
28.641651917629787
30
0
10
-0.24017605174261547
20
26.249391692187459
30
0
10
-1.1113840939624708
20
21.8100753449161
30
0
10
-3.5906928476245881
20
16.186717368801389
30
0
10
-9.1623086320639047
20
10.629465572791938
30
0
10
-19.491694971819875
20
6.2445384404804569
30
0
10
-32.688018784858421
20
3.635633494628105
30
0
10
-48.24398895067965
20
2.1360551489643105
30
0
10
-65.695449454592307
20
1.2896174096560598
30
0
10
-84.660098388082361
20
0.79010151735920209
30
0
10
-104.85273620158644
20
0.45761621582598722
30
0
10
-121.84054842490599
20
0.25233809294259479
30
0
10
-135.00733453730149
20
0.11849015220771199
30
0
10
-143.97140795915607
20
0.038033413393074145
30
0
10
-148.5
20
0
30
0
0
SPLINE
5
119
100
AcDbEntity
8
0
100
AcDbSpline
70
4
71
5
72
21
73
15
74
0
42
0.000000001
43
0.0000000001
44
0.0000000001
40
0
40
0
40
0
40
0
40
0
40
0
40
0.10000000000000001
40
0.20000000000000001
40
0.30000000000000004
40
0.40000000000000002
40
0.5
40
0.59999999999999998
40
0.69999999999999996
40
0.79999999999999993
40
0.89999999999999991
40
1
40
1
40
1
40
1
40
1
40
1
41
1
41
1
41
1
41
1
41
1
41
1
41
1
41
1
41
1
41
1
41
1
41
1
41
1
41
1
41
1
10
-297
20
28.641651917629787
30
0
10
-296.75982394825741
20
26.249391692187459
30
0
10
-295.88861590603756
20
21.8100753449161
30
0
10
-293.40930715237545
20
16.186717368801389
30
0
10
-287.83769136793615
20
10.629465572791938
30
0
10
-277.50830502818013
20
6.2445384404804569
30
0
10
-264.3119812151416
20
3.635633494628105
30
0
10
-248.75601104932036
20
2.1360551489643105
30
0
10
-231.30455054540772
20
1.2896174096560598
30
0
10
-212.33990161191767
20
0.79010151735920209
30
0
10
-192.14726379841358
20
0.45761621582598722
30
0
10
-175.15945157509404
20
0.25233809294259479
30
0
10
-161.99266546269854
20
0.11849015220771199
30
0
10
-153.02859204084396
20
0.038033413393074145
30
0
10
-148.5
20
0
30
0
0
LINE
5
120
100
AcDbEntity
8
0
100
AcDbLine
10
-297
20
28.641651917629787
30
0
11
-297
21
146.13949457498512
31
0
0
SPLINE
5
121
100
AcDbEntity
8
0
100
AcDbSpline
70
4
71
5
72
21
73
15
74
0
42
0.000000001
43
0.0000000001
44
0.0000000001
40
0
40
0
40
0
40
0
40
0
40
0
40
0.10000000000000001
40
0.20000000000000001
40
0.30000000000000004
40
0.40000000000000002
40
0.5
40
0.59999999999999998
40
0.69999999999999996
40
0.79999999999999993
40
0.89999999999999991
40
1
40
1
40
1
40
1
40
1
40
1
41
1
41
1
41
1
41
1
41
1
41
1
41
1
41
1
41
1
41
1
41
1
41
1
41
1
41
1
41
1
10
-255.00000000000006
20
270.00000000000006
30
0
10
-258.09047329685558
20
270.00000000000006
30
0
10
-263.87050333085762
20
269.58868534974113
30
0
10
-271.33793494273442
20
267.73814141750682
30
0
10
-279.00913077399343
20
262.83029939577864
30
0
10
-285.43808765517912
20
252.89419831309093
30
0
10
-289.50280441009386
20
239.66786208387973
30
0
10
-292.0195951931492
20
224.16130837713752
30
0
10
-293.66458666736071
20
207.88396210598466
30
0
10
-294.83059748220109
20
191.58391334575765
30
0
10
-295.73854628587446
20
175.73362949556056
30
0
10
-296.32597837543699
20
163.55679048316628
30
0
10
-296.69325141746867
20
154.73069095700504
30
0
10
-296.90351222883902
20
148.98083587432905
30
0
10
-297
20
146.13949457498512
30
0
0
ENDSEC
0
SECTION
2
OBJECTS
0
DICTIONARY
5
C
100
AcDbDictionary
3
ACAD_GROUP
350
D
3
ACAD_MLINESTYLE
350
17
0
DICTIONARY
5
D
100
AcDbDictionary
0
DICTIONARY
5
1A
330
C
100
AcDbDictionary
0
DICTIONARY
5
17
100
AcDbDictionary
0
ENDSEC
0
EOF
